<svg width="150" height="150" viewBox="0 0 150 150" fill="none" xmlns="http://www.w3.org/2000/svg">
<path d="M74.8018 74.5029H8.36816C8.43254 65.8829 10.16 57.3547 13.46 49.3877C16.8238 41.2666 21.7551 33.8875 27.9707 27.6719C34.1863 21.4563 41.5655 16.526 49.6865 13.1621C57.6536 9.86205 66.1816 8.13368 74.8018 8.06934V74.5029Z" stroke="white"/>
<path d="M141.632 74.9004C141.567 83.5205 139.84 92.0486 136.54 100.016C133.176 108.137 128.246 115.516 122.03 121.731C115.815 127.947 108.436 132.877 100.314 136.241C92.3474 139.541 83.8193 141.269 75.1992 141.333V74.9004H141.632Z" stroke="white"/>
<path d="M75.2998 41.7832C93.6455 41.7832 108.518 56.6553 108.519 75.001C108.519 93.3469 93.6456 108.22 75.2998 108.22C56.9541 108.22 42.082 93.3468 42.082 75.001C42.0823 56.6554 56.9543 41.7834 75.2998 41.7832Z" stroke="white"/>
<path d="M75.3008 23.7207C103.623 23.7207 126.582 46.6801 126.582 75.002C126.582 103.324 103.623 126.284 75.3008 126.284C46.9789 126.284 24.0195 103.324 24.0195 75.002C24.0197 46.6801 46.979 23.7208 75.3008 23.7207Z" fill="white" fill-opacity="0.25" stroke="white"/>
<path d="M75.3014 75.002C75.3014 83.9446 71.749 92.5209 65.4256 98.8443C59.1022 105.168 50.5259 108.72 41.5833 108.72C32.6407 108.72 24.0644 105.168 17.741 98.8443C11.4177 92.521 7.86524 83.9446 7.86523 75.002L75.3014 75.002Z" fill="white" fill-opacity="0.35"/>
<path d="M142.135 75.0014C142.135 66.0588 138.583 57.4824 132.26 51.159C125.936 44.8357 117.36 41.2832 108.417 41.2832C99.4747 41.2832 90.8984 44.8356 84.575 51.159C78.2517 57.4824 74.6992 66.0588 74.6992 75.0014L142.135 75.0014Z" fill="white" fill-opacity="0.35"/>
<path d="M75.2608 74.854C79.7321 82.5986 80.9438 91.8021 78.6293 100.44C76.3147 109.078 70.6636 116.443 62.9191 120.914C55.1746 125.385 45.9711 126.597 37.3332 124.282C28.6953 121.968 21.3307 116.317 16.8594 108.572L75.2608 74.854Z" fill="white" fill-opacity="0.35"/>
<path d="M133.139 41.4357C128.668 33.6912 121.303 28.0401 112.666 25.7255C104.028 23.411 94.8241 24.6227 87.0796 29.094C79.3351 33.5653 73.684 40.93 71.3695 49.5679C69.055 58.2058 70.2667 67.4094 74.7379 75.154L133.139 41.4357Z" fill="white" fill-opacity="0.35"/>
<path d="M75 74.7022C83.9426 74.7022 92.5189 78.2547 98.8423 84.578C105.166 90.9014 108.718 99.4778 108.718 108.42C108.718 117.363 105.166 125.939 98.8423 132.263C92.5189 138.586 83.9426 142.139 75 142.139L75 74.7022Z" fill="white" fill-opacity="0.35"/>
<path d="M74.9993 7.86822C66.0567 7.86822 57.4804 11.4207 51.157 17.7441C44.8337 24.0675 41.2813 32.6438 41.2812 41.5865C41.2812 50.5291 44.8337 59.1054 51.157 65.4288C57.4804 71.7522 66.0567 75.3047 74.9993 75.3047L74.9993 7.86822Z" fill="white" fill-opacity="0.35"/>
<path d="M74.8503 74.7409C82.5948 70.2696 91.7983 69.0579 100.436 71.3724C109.074 73.6869 116.439 79.3381 120.91 87.0826C125.381 94.8272 126.593 104.031 124.278 112.669C121.964 121.307 116.313 128.671 108.568 133.143L74.8503 74.7409Z" fill="white" fill-opacity="0.35"/>
<path d="M41.4338 16.8622C33.6893 21.3336 28.0382 28.6983 25.7237 37.3362C23.4092 45.9741 24.6208 55.1777 29.0921 62.9222C33.5634 70.6667 40.9281 76.3179 49.566 78.6324C58.2038 80.9469 67.4074 79.7352 75.1519 75.2639L41.4338 16.8622Z" fill="white" fill-opacity="0.35"/>
</svg>
